<svg class="rich-terminal" viewBox="0 0 1507 1123.6" xmlns="http://www.w3.org/2000/svg">
    <!-- Generated with Rich https://www.textualize.io -->
    <style>

    @font-face {
        font-family: "Fira Code";
        src: local("FiraCode-Regular"),
                url("https://cdnjs.cloudflare.com/ajax/libs/firacode/6.2.0/woff2/FiraCode-Regular.woff2") format("woff2"),
                url("https://cdnjs.cloudflare.com/ajax/libs/firacode/6.2.0/woff/FiraCode-Regular.woff") format("woff");
        font-style: normal;
        font-weight: 400;
    }
    @font-face {
        font-family: "Fira Code";
        src: local("FiraCode-Bold"),
                url("https://cdnjs.cloudflare.com/ajax/libs/firacode/6.2.0/woff2/FiraCode-Bold.woff2") format("woff2"),
                url("https://cdnjs.cloudflare.com/ajax/libs/firacode/6.2.0/woff/FiraCode-Bold.woff") format("woff");
        font-style: bold;
        font-weight: 700;
    }

    .terminal-2841579823-matrix {
        font-family: Fira Code, monospace;
        font-size: 20px;
        line-height: 24.4px;
        font-variant-east-asian: full-width;
    }

    .terminal-2841579823-title {
        font-size: 18px;
        font-weight: bold;
        font-family: arial;
    }

    .terminal-2841579823-r1 { fill: #c5c8c6 }
.terminal-2841579823-r2 { fill: #fbf1c7 }
.terminal-2841579823-r3 { fill: #c0b79a }
.terminal-2841579823-r4 { fill: #e2d8b4 }
.terminal-2841579823-r5 { fill: #fbf1c7;font-weight: bold }
.terminal-2841579823-r6 { fill: #282828 }
.terminal-2841579823-r7 { fill: #363230 }
.terminal-2841579823-r8 { fill: #393736 }
.terminal-2841579823-r9 { fill: #4d4846 }
.terminal-2841579823-r10 { fill: #847f6d;font-weight: bold }
.terminal-2841579823-r11 { fill: #45413d;font-weight: bold }
.terminal-2841579823-r12 { fill: #292725 }
.terminal-2841579823-r13 { fill: #2b2725 }
.terminal-2841579823-r14 { fill: #726a5f }
.terminal-2841579823-r15 { fill: #fabd2f;font-weight: bold }
    </style>

    <defs>
    <clipPath id="terminal-2841579823-clip-terminal">
      <rect x="0" y="0" width="1487.3999999999999" height="1072.6" />
    </clipPath>
    <clipPath id="terminal-2841579823-line-0">
    <rect x="0" y="1.5" width="1488.4" height="24.65"/>
            </clipPath>
<clipPath id="terminal-2841579823-line-1">
    <rect x="0" y="25.9" width="1488.4" height="24.65"/>
            </clipPath>
<clipPath id="terminal-2841579823-line-2">
    <rect x="0" y="50.3" width="1488.4" height="24.65"/>
            </clipPath>
<clipPath id="terminal-2841579823-line-3">
    <rect x="0" y="74.7" width="1488.4" height="24.65"/>
            </clipPath>
<clipPath id="terminal-2841579823-line-4">
    <rect x="0" y="99.1" width="1488.4" height="24.65"/>
            </clipPath>
<clipPath id="terminal-2841579823-line-5">
    <rect x="0" y="123.5" width="1488.4" height="24.65"/>
            </clipPath>
<clipPath id="terminal-2841579823-line-6">
    <rect x="0" y="147.9" width="1488.4" height="24.65"/>
            </clipPath>
<clipPath id="terminal-2841579823-line-7">
    <rect x="0" y="172.3" width="1488.4" height="24.65"/>
            </clipPath>
<clipPath id="terminal-2841579823-line-8">
    <rect x="0" y="196.7" width="1488.4" height="24.65"/>
            </clipPath>
<clipPath id="terminal-2841579823-line-9">
    <rect x="0" y="221.1" width="1488.4" height="24.65"/>
            </clipPath>
<clipPath id="terminal-2841579823-line-10">
    <rect x="0" y="245.5" width="1488.4" height="24.65"/>
            </clipPath>
<clipPath id="terminal-2841579823-line-11">
    <rect x="0" y="269.9" width="1488.4" height="24.65"/>
            </clipPath>
<clipPath id="terminal-2841579823-line-12">
    <rect x="0" y="294.3" width="1488.4" height="24.65"/>
            </clipPath>
<clipPath id="terminal-2841579823-line-13">
    <rect x="0" y="318.7" width="1488.4" height="24.65"/>
            </clipPath>
<clipPath id="terminal-2841579823-line-14">
    <rect x="0" y="343.1" width="1488.4" height="24.65"/>
            </clipPath>
<clipPath id="terminal-2841579823-line-15">
    <rect x="0" y="367.5" width="1488.4" height="24.65"/>
            </clipPath>
<clipPath id="terminal-2841579823-line-16">
    <rect x="0" y="391.9" width="1488.4" height="24.65"/>
            </clipPath>
<clipPath id="terminal-2841579823-line-17">
    <rect x="0" y="416.3" width="1488.4" height="24.65"/>
            </clipPath>
<clipPath id="terminal-2841579823-line-18">
    <rect x="0" y="440.7" width="1488.4" height="24.65"/>
            </clipPath>
<clipPath id="terminal-2841579823-line-19">
    <rect x="0" y="465.1" width="1488.4" height="24.65"/>
            </clipPath>
<clipPath id="terminal-2841579823-line-20">
    <rect x="0" y="489.5" width="1488.4" height="24.65"/>
            </clipPath>
<clipPath id="terminal-2841579823-line-21">
    <rect x="0" y="513.9" width="1488.4" height="24.65"/>
            </clipPath>
<clipPath id="terminal-2841579823-line-22">
    <rect x="0" y="538.3" width="1488.4" height="24.65"/>
            </clipPath>
<clipPath id="terminal-2841579823-line-23">
    <rect x="0" y="562.7" width="1488.4" height="24.65"/>
            </clipPath>
<clipPath id="terminal-2841579823-line-24">
    <rect x="0" y="587.1" width="1488.4" height="24.65"/>
            </clipPath>
<clipPath id="terminal-2841579823-line-25">
    <rect x="0" y="611.5" width="1488.4" height="24.65"/>
            </clipPath>
<clipPath id="terminal-2841579823-line-26">
    <rect x="0" y="635.9" width="1488.4" height="24.65"/>
            </clipPath>
<clipPath id="terminal-2841579823-line-27">
    <rect x="0" y="660.3" width="1488.4" height="24.65"/>
            </clipPath>
<clipPath id="terminal-2841579823-line-28">
    <rect x="0" y="684.7" width="1488.4" height="24.65"/>
            </clipPath>
<clipPath id="terminal-2841579823-line-29">
    <rect x="0" y="709.1" width="1488.4" height="24.65"/>
            </clipPath>
<clipPath id="terminal-2841579823-line-30">
    <rect x="0" y="733.5" width="1488.4" height="24.65"/>
            </clipPath>
<clipPath id="terminal-2841579823-line-31">
    <rect x="0" y="757.9" width="1488.4" height="24.65"/>
            </clipPath>
<clipPath id="terminal-2841579823-line-32">
    <rect x="0" y="782.3" width="1488.4" height="24.65"/>
            </clipPath>
<clipPath id="terminal-2841579823-line-33">
    <rect x="0" y="806.7" width="1488.4" height="24.65"/>
            </clipPath>
<clipPath id="terminal-2841579823-line-34">
    <rect x="0" y="831.1" width="1488.4" height="24.65"/>
            </clipPath>
<clipPath id="terminal-2841579823-line-35">
    <rect x="0" y="855.5" width="1488.4" height="24.65"/>
            </clipPath>
<clipPath id="terminal-2841579823-line-36">
    <rect x="0" y="879.9" width="1488.4" height="24.65"/>
            </clipPath>
<clipPath id="terminal-2841579823-line-37">
    <rect x="0" y="904.3" width="1488.4" height="24.65"/>
            </clipPath>
<clipPath id="terminal-2841579823-line-38">
    <rect x="0" y="928.7" width="1488.4" height="24.65"/>
            </clipPath>
<clipPath id="terminal-2841579823-line-39">
    <rect x="0" y="953.1" width="1488.4" height="24.65"/>
            </clipPath>
<clipPath id="terminal-2841579823-line-40">
    <rect x="0" y="977.5" width="1488.4" height="24.65"/>
            </clipPath>
<clipPath id="terminal-2841579823-line-41">
    <rect x="0" y="1001.9" width="1488.4" height="24.65"/>
            </clipPath>
<clipPath id="terminal-2841579823-line-42">
    <rect x="0" y="1026.3" width="1488.4" height="24.65"/>
            </clipPath>
    </defs>

    <rect fill="#292929" stroke="rgba(255,255,255,0.35)" stroke-width="1" x="1" y="1" width="1505" height="1121.6" rx="8"/><text class="terminal-2841579823-title" fill="#c5c8c6" text-anchor="middle" x="752" y="27">Xiaomi&#160;BE7000&#160;Setup</text>
            <g transform="translate(26,22)">
            <circle cx="0" cy="0" r="7" fill="#ff5f57"/>
            <circle cx="22" cy="0" r="7" fill="#febc2e"/>
            <circle cx="44" cy="0" r="7" fill="#28c840"/>
            </g>
        
    <g transform="translate(9, 41)" clip-path="url(#terminal-2841579823-clip-terminal)">
    <rect fill="#504945" x="0" y="1.5" width="12.2" height="24.65" shape-rendering="crispEdges"/><rect fill="#504945" x="12.2" y="1.5" width="12.2" height="24.65" shape-rendering="crispEdges"/><rect fill="#504945" x="24.4" y="1.5" width="61" height="24.65" shape-rendering="crispEdges"/><rect fill="#504945" x="85.4" y="1.5" width="12.2" height="24.65" shape-rendering="crispEdges"/><rect fill="#504945" x="97.6" y="1.5" width="292.8" height="24.65" shape-rendering="crispEdges"/><rect fill="#504945" x="390.4" y="1.5" width="231.8" height="24.65" shape-rendering="crispEdges"/><rect fill="#504945" x="622.2" y="1.5" width="36.6" height="24.65" shape-rendering="crispEdges"/><rect fill="#504945" x="658.8" y="1.5" width="414.8" height="24.65" shape-rendering="crispEdges"/><rect fill="#504945" x="1073.6" y="1.5" width="292.8" height="24.65" shape-rendering="crispEdges"/><rect fill="#57504a" x="1366.4" y="1.5" width="12.2" height="24.65" shape-rendering="crispEdges"/><rect fill="#57504a" x="1378.6" y="1.5" width="97.6" height="24.65" shape-rendering="crispEdges"/><rect fill="#57504a" x="1476.2" y="1.5" width="12.2" height="24.65" shape-rendering="crispEdges"/><rect fill="#282828" x="0" y="25.9" width="1488.4" height="24.65" shape-rendering="crispEdges"/><rect fill="#282828" x="0" y="50.3" width="36.6" height="24.65" shape-rendering="crispEdges"/><rect fill="#282828" x="36.6" y="50.3" width="305" height="24.65" shape-rendering="crispEdges"/><rect fill="#282828" x="341.6" y="50.3" width="1110.2" height="24.65" shape-rendering="crispEdges"/><rect fill="#282828" x="1451.8" y="50.3" width="36.6" height="24.65" shape-rendering="crispEdges"/><rect fill="#282828" x="0" y="74.7" width="36.6" height="24.65" shape-rendering="crispEdges"/><rect fill="#282828" x="36.6" y="74.7" width="695.4" height="24.65" shape-rendering="crispEdges"/><rect fill="#282828" x="732" y="74.7" width="719.8" height="24.65" shape-rendering="crispEdges"/><rect fill="#282828" x="1451.8" y="74.7" width="36.6" height="24.65" shape-rendering="crispEdges"/><rect fill="#282828" x="0" y="99.1" width="36.6" height="24.65" shape-rendering="crispEdges"/><rect fill="#282828" x="36.6" y="99.1" width="1415.2" height="24.65" shape-rendering="crispEdges"/><rect fill="#282828" x="1451.8" y="99.1" width="36.6" height="24.65" shape-rendering="crispEdges"/><rect fill="#282828" x="0" y="123.5" width="36.6" height="24.65" shape-rendering="crispEdges"/><rect fill="#282828" x="36.6" y="123.5" width="305" height="24.65" shape-rendering="crispEdges"/><rect fill="#282828" x="341.6" y="123.5" width="1110.2" height="24.65" shape-rendering="crispEdges"/><rect fill="#282828" x="1451.8" y="123.5" width="36.6" height="24.65" shape-rendering="crispEdges"/><rect fill="#282828" x="0" y="147.9" width="36.6" height="24.65" shape-rendering="crispEdges"/><rect fill="#282828" x="36.6" y="147.9" width="1415.2" height="24.65" shape-rendering="crispEdges"/><rect fill="#282828" x="1451.8" y="147.9" width="36.6" height="24.65" shape-rendering="crispEdges"/><rect fill="#282828" x="0" y="172.3" width="36.6" height="24.65" shape-rendering="crispEdges"/><rect fill="#282828" x="36.6" y="172.3" width="1415.2" height="24.65" shape-rendering="crispEdges"/><rect fill="#282828" x="1451.8" y="172.3" width="36.6" height="24.65" shape-rendering="crispEdges"/><rect fill="#282828" x="0" y="196.7" width="36.6" height="24.65" shape-rendering="crispEdges"/><rect fill="#282828" x="36.6" y="196.7" width="12.2" height="24.65" shape-rendering="crispEdges"/><rect fill="#282828" x="48.8" y="196.7" width="195.2" height="24.65" shape-rendering="crispEdges"/><rect fill="#282828" x="244" y="196.7" width="1195.6" height="24.65" shape-rendering="crispEdges"/><rect fill="#282828" x="1439.6" y="196.7" width="12.2" height="24.65" shape-rendering="crispEdges"/><rect fill="#282828" x="1451.8" y="196.7" width="36.6" height="24.65" shape-rendering="crispEdges"/><rect fill="#282828" x="0" y="221.1" width="36.6" height="24.65" shape-rendering="crispEdges"/><rect fill="#282828" x="36.6" y="221.1" width="12.2" height="24.65" shape-rendering="crispEdges"/><rect fill="#282828" x="48.8" y="221.1" width="1390.8" height="24.65" shape-rendering="crispEdges"/><rect fill="#282828" x="1439.6" y="221.1" width="12.2" height="24.65" shape-rendering="crispEdges"/><rect fill="#282828" x="1451.8" y="221.1" width="36.6" height="24.65" shape-rendering="crispEdges"/><rect fill="#282828" x="0" y="245.5" width="36.6" height="24.65" shape-rendering="crispEdges"/><rect fill="#282828" x="36.6" y="245.5" width="12.2" height="24.65" shape-rendering="crispEdges"/><rect fill="#282828" x="48.8" y="245.5" width="1366.4" height="24.65" shape-rendering="crispEdges"/><rect fill="#282828" x="1415.2" y="245.5" width="24.4" height="24.65" shape-rendering="crispEdges"/><rect fill="#282828" x="1439.6" y="245.5" width="12.2" height="24.65" shape-rendering="crispEdges"/><rect fill="#282828" x="1451.8" y="245.5" width="36.6" height="24.65" shape-rendering="crispEdges"/><rect fill="#282828" x="0" y="269.9" width="36.6" height="24.65" shape-rendering="crispEdges"/><rect fill="#282828" x="36.6" y="269.9" width="12.2" height="24.65" shape-rendering="crispEdges"/><rect fill="#282828" x="48.8" y="269.9" width="1390.8" height="24.65" shape-rendering="crispEdges"/><rect fill="#282828" x="1439.6" y="269.9" width="12.2" height="24.65" shape-rendering="crispEdges"/><rect fill="#282828" x="1451.8" y="269.9" width="36.6" height="24.65" shape-rendering="crispEdges"/><rect fill="#282828" x="0" y="294.3" width="36.6" height="24.65" shape-rendering="crispEdges"/><rect fill="#282828" x="36.6" y="294.3" width="12.2" height="24.65" shape-rendering="crispEdges"/><rect fill="#363230" x="48.8" y="294.3" width="12.2" height="24.65" shape-rendering="crispEdges"/><rect fill="#3c3836" x="61" y="294.3" width="1366.4" height="24.65" shape-rendering="crispEdges"/><rect fill="#282828" x="1427.4" y="294.3" width="12.2" height="24.65" shape-rendering="crispEdges"/><rect fill="#282828" x="1439.6" y="294.3" width="12.2" height="24.65" shape-rendering="crispEdges"/><rect fill="#282828" x="1451.8" y="294.3" width="36.6" height="24.65" shape-rendering="crispEdges"/><rect fill="#282828" x="0" y="318.7" width="36.6" height="24.65" shape-rendering="crispEdges"/><rect fill="#282828" x="36.6" y="318.7" width="12.2" height="24.65" shape-rendering="crispEdges"/><rect fill="#363230" x="48.8" y="318.7" width="12.2" height="24.65" shape-rendering="crispEdges"/><rect fill="#3c3836" x="61" y="318.7" width="24.4" height="24.65" shape-rendering="crispEdges"/><rect fill="#3c3836" x="85.4" y="318.7" width="146.4" height="24.65" shape-rendering="crispEdges"/><rect fill="#3c3836" x="231.8" y="318.7" width="1171.2" height="24.65" shape-rendering="crispEdges"/><rect fill="#3c3836" x="1403" y="318.7" width="24.4" height="24.65" shape-rendering="crispEdges"/><rect fill="#282828" x="1427.4" y="318.7" width="12.2" height="24.65" shape-rendering="crispEdges"/><rect fill="#282828" x="1439.6" y="318.7" width="12.2" height="24.65" shape-rendering="crispEdges"/><rect fill="#282828" x="1451.8" y="318.7" width="36.6" height="24.65" shape-rendering="crispEdges"/><rect fill="#282828" x="0" y="343.1" width="36.6" height="24.65" shape-rendering="crispEdges"/><rect fill="#282828" x="36.6" y="343.1" width="12.2" height="24.65" shape-rendering="crispEdges"/><rect fill="#363230" x="48.8" y="343.1" width="12.2" height="24.65" shape-rendering="crispEdges"/><rect fill="#3c3836" x="61" y="343.1" width="1366.4" height="24.65" shape-rendering="crispEdges"/><rect fill="#282828" x="1427.4" y="343.1" width="12.2" height="24.65" shape-rendering="crispEdges"/><rect fill="#282828" x="1439.6" y="343.1" width="12.2" height="24.65" shape-rendering="crispEdges"/><rect fill="#282828" x="1451.8" y="343.1" width="36.6" height="24.65" shape-rendering="crispEdges"/><rect fill="#282828" x="0" y="367.5" width="36.6" height="24.65" shape-rendering="crispEdges"/><rect fill="#282828" x="36.6" y="367.5" width="12.2" height="24.65" shape-rendering="crispEdges"/><rect fill="#282828" x="48.8" y="367.5" width="1390.8" height="24.65" shape-rendering="crispEdges"/><rect fill="#282828" x="1439.6" y="367.5" width="12.2" height="24.65" shape-rendering="crispEdges"/><rect fill="#282828" x="1451.8" y="367.5" width="36.6" height="24.65" shape-rendering="crispEdges"/><rect fill="#282828" x="0" y="391.9" width="36.6" height="24.65" shape-rendering="crispEdges"/><rect fill="#282828" x="36.6" y="391.9" width="12.2" height="24.65" shape-rendering="crispEdges"/><rect fill="#282828" x="48.8" y="391.9" width="1342" height="24.65" shape-rendering="crispEdges"/><rect fill="#282828" x="1390.8" y="391.9" width="48.8" height="24.65" shape-rendering="crispEdges"/><rect fill="#282828" x="1439.6" y="391.9" width="12.2" height="24.65" shape-rendering="crispEdges"/><rect fill="#282828" x="1451.8" y="391.9" width="36.6" height="24.65" shape-rendering="crispEdges"/><rect fill="#282828" x="0" y="416.3" width="36.6" height="24.65" shape-rendering="crispEdges"/><rect fill="#282828" x="36.6" y="416.3" width="12.2" height="24.65" shape-rendering="crispEdges"/><rect fill="#282828" x="48.8" y="416.3" width="451.4" height="24.65" shape-rendering="crispEdges"/><rect fill="#282828" x="500.2" y="416.3" width="939.4" height="24.65" shape-rendering="crispEdges"/><rect fill="#282828" x="1439.6" y="416.3" width="12.2" height="24.65" shape-rendering="crispEdges"/><rect fill="#282828" x="1451.8" y="416.3" width="36.6" height="24.65" shape-rendering="crispEdges"/><rect fill="#282828" x="0" y="440.7" width="36.6" height="24.65" shape-rendering="crispEdges"/><rect fill="#282828" x="36.6" y="440.7" width="12.2" height="24.65" shape-rendering="crispEdges"/><rect fill="#282828" x="48.8" y="440.7" width="1390.8" height="24.65" shape-rendering="crispEdges"/><rect fill="#282828" x="1439.6" y="440.7" width="12.2" height="24.65" shape-rendering="crispEdges"/><rect fill="#282828" x="1451.8" y="440.7" width="36.6" height="24.65" shape-rendering="crispEdges"/><rect fill="#282828" x="0" y="465.1" width="36.6" height="24.65" shape-rendering="crispEdges"/><rect fill="#282828" x="36.6" y="465.1" width="12.2" height="24.65" shape-rendering="crispEdges"/><rect fill="#363230" x="48.8" y="465.1" width="12.2" height="24.65" shape-rendering="crispEdges"/><rect fill="#3c3836" x="61" y="465.1" width="1366.4" height="24.65" shape-rendering="crispEdges"/><rect fill="#282828" x="1427.4" y="465.1" width="12.2" height="24.65" shape-rendering="crispEdges"/><rect fill="#282828" x="1439.6" y="465.1" width="12.2" height="24.65" shape-rendering="crispEdges"/><rect fill="#282828" x="1451.8" y="465.1" width="36.6" height="24.65" shape-rendering="crispEdges"/><rect fill="#282828" x="0" y="489.5" width="36.6" height="24.65" shape-rendering="crispEdges"/><rect fill="#282828" x="36.6" y="489.5" width="12.2" height="24.65" shape-rendering="crispEdges"/><rect fill="#363230" x="48.8" y="489.5" width="12.2" height="24.65" shape-rendering="crispEdges"/><rect fill="#3c3836" x="61" y="489.5" width="24.4" height="24.65" shape-rendering="crispEdges"/><rect fill="#3c3836" x="85.4" y="489.5" width="134.2" height="24.65" shape-rendering="crispEdges"/><rect fill="#3c3836" x="219.6" y="489.5" width="1183.4" height="24.65" shape-rendering="crispEdges"/><rect fill="#3c3836" x="1403" y="489.5" width="24.4" height="24.65" shape-rendering="crispEdges"/><rect fill="#282828" x="1427.4" y="489.5" width="12.2" height="24.65" shape-rendering="crispEdges"/><rect fill="#282828" x="1439.6" y="489.5" width="12.2" height="24.65" shape-rendering="crispEdges"/><rect fill="#282828" x="1451.8" y="489.5" width="36.6" height="24.65" shape-rendering="crispEdges"/><rect fill="#282828" x="0" y="513.9" width="36.6" height="24.65" shape-rendering="crispEdges"/><rect fill="#282828" x="36.6" y="513.9" width="12.2" height="24.65" shape-rendering="crispEdges"/><rect fill="#363230" x="48.8" y="513.9" width="12.2" height="24.65" shape-rendering="crispEdges"/><rect fill="#3c3836" x="61" y="513.9" width="1366.4" height="24.65" shape-rendering="crispEdges"/><rect fill="#282828" x="1427.4" y="513.9" width="12.2" height="24.65" shape-rendering="crispEdges"/><rect fill="#282828" x="1439.6" y="513.9" width="12.2" height="24.65" shape-rendering="crispEdges"/><rect fill="#282828" x="1451.8" y="513.9" width="36.6" height="24.65" shape-rendering="crispEdges"/><rect fill="#282828" x="0" y="538.3" width="36.6" height="24.65" shape-rendering="crispEdges"/><rect fill="#282828" x="36.6" y="538.3" width="12.2" height="24.65" shape-rendering="crispEdges"/><rect fill="#282828" x="48.8" y="538.3" width="1390.8" height="24.65" shape-rendering="crispEdges"/><rect fill="#282828" x="1439.6" y="538.3" width="12.2" height="24.65" shape-rendering="crispEdges"/><rect fill="#282828" x="1451.8" y="538.3" width="36.6" height="24.65" shape-rendering="crispEdges"/><rect fill="#282828" x="0" y="562.7" width="36.6" height="24.65" shape-rendering="crispEdges"/><rect fill="#282828" x="36.6" y="562.7" width="12.2" height="24.65" shape-rendering="crispEdges"/><rect fill="#282828" x="48.8" y="562.7" width="1390.8" height="24.65" shape-rendering="crispEdges"/><rect fill="#282828" x="1439.6" y="562.7" width="12.2" height="24.65" shape-rendering="crispEdges"/><rect fill="#282828" x="1451.8" y="562.7" width="36.6" height="24.65" shape-rendering="crispEdges"/><rect fill="#282828" x="0" y="587.1" width="36.6" height="24.65" shape-rendering="crispEdges"/><rect fill="#282828" x="36.6" y="587.1" width="12.2" height="24.65" shape-rendering="crispEdges"/><rect fill="#282828" x="48.8" y="587.1" width="1390.8" height="24.65" shape-rendering="crispEdges"/><rect fill="#282828" x="1439.6" y="587.1" width="12.2" height="24.65" shape-rendering="crispEdges"/><rect fill="#282828" x="1451.8" y="587.1" width="36.6" height="24.65" shape-rendering="crispEdges"/><rect fill="#282828" x="0" y="611.5" width="36.6" height="24.65" shape-rendering="crispEdges"/><rect fill="#282828" x="36.6" y="611.5" width="12.2" height="24.65" shape-rendering="crispEdges"/><rect fill="#282828" x="48.8" y="611.5" width="1390.8" height="24.65" shape-rendering="crispEdges"/><rect fill="#282828" x="1439.6" y="611.5" width="12.2" height="24.65" shape-rendering="crispEdges"/><rect fill="#282828" x="1451.8" y="611.5" width="36.6" height="24.65" shape-rendering="crispEdges"/><rect fill="#282828" x="0" y="635.9" width="36.6" height="24.65" shape-rendering="crispEdges"/><rect fill="#282828" x="36.6" y="635.9" width="12.2" height="24.65" shape-rendering="crispEdges"/><rect fill="#282828" x="48.8" y="635.9" width="1390.8" height="24.65" shape-rendering="crispEdges"/><rect fill="#282828" x="1439.6" y="635.9" width="12.2" height="24.65" shape-rendering="crispEdges"/><rect fill="#282828" x="1451.8" y="635.9" width="36.6" height="24.65" shape-rendering="crispEdges"/><rect fill="#282828" x="0" y="660.3" width="36.6" height="24.65" shape-rendering="crispEdges"/><rect fill="#282828" x="36.6" y="660.3" width="12.2" height="24.65" shape-rendering="crispEdges"/><rect fill="#282828" x="48.8" y="660.3" width="1390.8" height="24.65" shape-rendering="crispEdges"/><rect fill="#282828" x="1439.6" y="660.3" width="12.2" height="24.65" shape-rendering="crispEdges"/><rect fill="#282828" x="1451.8" y="660.3" width="36.6" height="24.65" shape-rendering="crispEdges"/><rect fill="#282828" x="0" y="684.7" width="36.6" height="24.65" shape-rendering="crispEdges"/><rect fill="#282828" x="36.6" y="684.7" width="12.2" height="24.65" shape-rendering="crispEdges"/><rect fill="#282828" x="48.8" y="684.7" width="1390.8" height="24.65" shape-rendering="crispEdges"/><rect fill="#282828" x="1439.6" y="684.7" width="12.2" height="24.65" shape-rendering="crispEdges"/><rect fill="#282828" x="1451.8" y="684.7" width="36.6" height="24.65" shape-rendering="crispEdges"/><rect fill="#282828" x="0" y="709.1" width="36.6" height="24.65" shape-rendering="crispEdges"/><rect fill="#282828" x="36.6" y="709.1" width="12.2" height="24.65" shape-rendering="crispEdges"/><rect fill="#282828" x="48.8" y="709.1" width="1390.8" height="24.65" shape-rendering="crispEdges"/><rect fill="#282828" x="1439.6" y="709.1" width="12.2" height="24.65" shape-rendering="crispEdges"/><rect fill="#282828" x="1451.8" y="709.1" width="36.6" height="24.65" shape-rendering="crispEdges"/><rect fill="#282828" x="0" y="733.5" width="36.6" height="24.65" shape-rendering="crispEdges"/><rect fill="#282828" x="36.6" y="733.5" width="12.2" height="24.65" shape-rendering="crispEdges"/><rect fill="#282828" x="48.8" y="733.5" width="1390.8" height="24.65" shape-rendering="crispEdges"/><rect fill="#282828" x="1439.6" y="733.5" width="12.2" height="24.65" shape-rendering="crispEdges"/><rect fill="#282828" x="1451.8" y="733.5" width="36.6" height="24.65" shape-rendering="crispEdges"/><rect fill="#282828" x="0" y="757.9" width="36.6" height="24.65" shape-rendering="crispEdges"/><rect fill="#282828" x="36.6" y="757.9" width="12.2" height="24.65" shape-rendering="crispEdges"/><rect fill="#282828" x="48.8" y="757.9" width="1390.8" height="24.65" shape-rendering="crispEdges"/><rect fill="#282828" x="1439.6" y="757.9" width="12.2" height="24.65" shape-rendering="crispEdges"/><rect fill="#282828" x="1451.8" y="757.9" width="36.6" height="24.65" shape-rendering="crispEdges"/><rect fill="#282828" x="0" y="782.3" width="36.6" height="24.65" shape-rendering="crispEdges"/><rect fill="#282828" x="36.6" y="782.3" width="12.2" height="24.65" shape-rendering="crispEdges"/><rect fill="#282828" x="48.8" y="782.3" width="1390.8" height="24.65" shape-rendering="crispEdges"/><rect fill="#282828" x="1439.6" y="782.3" width="12.2" height="24.65" shape-rendering="crispEdges"/><rect fill="#282828" x="1451.8" y="782.3" width="36.6" height="24.65" shape-rendering="crispEdges"/><rect fill="#282828" x="0" y="806.7" width="36.6" height="24.65" shape-rendering="crispEdges"/><rect fill="#282828" x="36.6" y="806.7" width="12.2" height="24.65" shape-rendering="crispEdges"/><rect fill="#282828" x="48.8" y="806.7" width="1390.8" height="24.65" shape-rendering="crispEdges"/><rect fill="#282828" x="1439.6" y="806.7" width="12.2" height="24.65" shape-rendering="crispEdges"/><rect fill="#282828" x="1451.8" y="806.7" width="36.6" height="24.65" shape-rendering="crispEdges"/><rect fill="#282828" x="0" y="831.1" width="36.6" height="24.65" shape-rendering="crispEdges"/><rect fill="#282828" x="36.6" y="831.1" width="12.2" height="24.65" shape-rendering="crispEdges"/><rect fill="#282828" x="48.8" y="831.1" width="1390.8" height="24.65" shape-rendering="crispEdges"/><rect fill="#282828" x="1439.6" y="831.1" width="12.2" height="24.65" shape-rendering="crispEdges"/><rect fill="#282828" x="1451.8" y="831.1" width="36.6" height="24.65" shape-rendering="crispEdges"/><rect fill="#282828" x="0" y="855.5" width="36.6" height="24.65" shape-rendering="crispEdges"/><rect fill="#282828" x="36.6" y="855.5" width="12.2" height="24.65" shape-rendering="crispEdges"/><rect fill="#282828" x="48.8" y="855.5" width="1390.8" height="24.65" shape-rendering="crispEdges"/><rect fill="#282828" x="1439.6" y="855.5" width="12.2" height="24.65" shape-rendering="crispEdges"/><rect fill="#282828" x="1451.8" y="855.5" width="36.6" height="24.65" shape-rendering="crispEdges"/><rect fill="#282828" x="0" y="879.9" width="36.6" height="24.65" shape-rendering="crispEdges"/><rect fill="#282828" x="36.6" y="879.9" width="12.2" height="24.65" shape-rendering="crispEdges"/><rect fill="#282828" x="48.8" y="879.9" width="1390.8" height="24.65" shape-rendering="crispEdges"/><rect fill="#282828" x="1439.6" y="879.9" width="12.2" height="24.65" shape-rendering="crispEdges"/><rect fill="#282828" x="1451.8" y="879.9" width="36.6" height="24.65" shape-rendering="crispEdges"/><rect fill="#282828" x="0" y="904.3" width="36.6" height="24.65" shape-rendering="crispEdges"/><rect fill="#282828" x="36.6" y="904.3" width="1415.2" height="24.65" shape-rendering="crispEdges"/><rect fill="#282828" x="1451.8" y="904.3" width="36.6" height="24.65" shape-rendering="crispEdges"/><rect fill="#282828" x="0" y="928.7" width="36.6" height="24.65" shape-rendering="crispEdges"/><rect fill="#282828" x="36.6" y="928.7" width="1415.2" height="24.65" shape-rendering="crispEdges"/><rect fill="#282828" x="1451.8" y="928.7" width="36.6" height="24.65" shape-rendering="crispEdges"/><rect fill="#282828" x="0" y="953.1" width="36.6" height="24.65" shape-rendering="crispEdges"/><rect fill="#312f2e" x="36.6" y="953.1" width="195.2" height="24.65" shape-rendering="crispEdges"/><rect fill="#45413d" x="231.8" y="953.1" width="195.2" height="24.65" shape-rendering="crispEdges"/><rect fill="#3c3836" x="427" y="953.1" width="195.2" height="24.65" shape-rendering="crispEdges"/><rect fill="#282828" x="622.2" y="953.1" width="829.6" height="24.65" shape-rendering="crispEdges"/><rect fill="#282828" x="1451.8" y="953.1" width="36.6" height="24.65" shape-rendering="crispEdges"/><rect fill="#282828" x="0" y="977.5" width="36.6" height="24.65" shape-rendering="crispEdges"/><rect fill="#312f2e" x="36.6" y="977.5" width="48.8" height="24.65" shape-rendering="crispEdges"/><rect fill="#312f2e" x="85.4" y="977.5" width="85.4" height="24.65" shape-rendering="crispEdges"/><rect fill="#312f2e" x="170.8" y="977.5" width="61" height="24.65" shape-rendering="crispEdges"/><rect fill="#45413d" x="231.8" y="977.5" width="48.8" height="24.65" shape-rendering="crispEdges"/><rect fill="#fbf1c7" x="280.6" y="977.5" width="85.4" height="24.65" shape-rendering="crispEdges"/><rect fill="#45413d" x="366" y="977.5" width="61" height="24.65" shape-rendering="crispEdges"/><rect fill="#3c3836" x="427" y="977.5" width="48.8" height="24.65" shape-rendering="crispEdges"/><rect fill="#3c3836" x="475.8" y="977.5" width="97.6" height="24.65" shape-rendering="crispEdges"/><rect fill="#3c3836" x="573.4" y="977.5" width="48.8" height="24.65" shape-rendering="crispEdges"/><rect fill="#282828" x="622.2" y="977.5" width="829.6" height="24.65" shape-rendering="crispEdges"/><rect fill="#282828" x="1451.8" y="977.5" width="36.6" height="24.65" shape-rendering="crispEdges"/><rect fill="#282828" x="0" y="1001.9" width="36.6" height="24.65" shape-rendering="crispEdges"/><rect fill="#312f2e" x="36.6" y="1001.9" width="195.2" height="24.65" shape-rendering="crispEdges"/><rect fill="#45413d" x="231.8" y="1001.9" width="195.2" height="24.65" shape-rendering="crispEdges"/><rect fill="#3c3836" x="427" y="1001.9" width="195.2" height="24.65" shape-rendering="crispEdges"/><rect fill="#282828" x="622.2" y="1001.9" width="829.6" height="24.65" shape-rendering="crispEdges"/><rect fill="#282828" x="1451.8" y="1001.9" width="36.6" height="24.65" shape-rendering="crispEdges"/><rect fill="#282828" x="0" y="1026.3" width="1488.4" height="24.65" shape-rendering="crispEdges"/><rect fill="#504945" x="0" y="1050.7" width="1342" height="24.65" shape-rendering="crispEdges"/><rect fill="#504945" x="1342" y="1050.7" width="12.2" height="24.65" shape-rendering="crispEdges"/><rect fill="#504945" x="1354.2" y="1050.7" width="24.4" height="24.65" shape-rendering="crispEdges"/><rect fill="#504945" x="1378.6" y="1050.7" width="97.6" height="24.65" shape-rendering="crispEdges"/><rect fill="#504945" x="1476.2" y="1050.7" width="12.2" height="24.65" shape-rendering="crispEdges"/>
    <g class="terminal-2841579823-matrix">
    <text class="terminal-2841579823-r2" x="12.2" y="20" textLength="12.2" clip-path="url(#terminal-2841579823-line-0)">⭘</text><text class="terminal-2841579823-r2" x="390.4" y="20" textLength="231.8" clip-path="url(#terminal-2841579823-line-0)">Xiaomi&#160;BE7000&#160;Setup</text><text class="terminal-2841579823-r3" x="622.2" y="20" textLength="36.6" clip-path="url(#terminal-2841579823-line-0)">&#160;—&#160;</text><text class="terminal-2841579823-r3" x="658.8" y="20" textLength="414.8" clip-path="url(#terminal-2841579823-line-0)">&#160;Мастер&#160;конфигурации&#160;Xiaomi&#160;BE7000</text><text class="terminal-2841579823-r4" x="1378.6" y="20" textLength="97.6" clip-path="url(#terminal-2841579823-line-0)">17:22:48</text><text class="terminal-2841579823-r1" x="1488.4" y="20" textLength="12.2" clip-path="url(#terminal-2841579823-line-0)">
</text><text class="terminal-2841579823-r1" x="1488.4" y="44.4" textLength="12.2" clip-path="url(#terminal-2841579823-line-1)">
</text><text class="terminal-2841579823-r5" x="36.6" y="68.8" textLength="305" clip-path="url(#terminal-2841579823-line-2)">Xiaomi&#160;BE7000&#160;Init&#160;Wizard</text><text class="terminal-2841579823-r1" x="1488.4" y="68.8" textLength="12.2" clip-path="url(#terminal-2841579823-line-2)">
</text><text class="terminal-2841579823-r5" x="36.6" y="93.2" textLength="695.4" clip-path="url(#terminal-2841579823-line-3)">Пошаговая&#160;инициализация:&#160;конфиг,&#160;root/bootstrap&#160;и&#160;deploy.</text><text class="terminal-2841579823-r1" x="1488.4" y="93.2" textLength="12.2" clip-path="url(#terminal-2841579823-line-3)">
</text><text class="terminal-2841579823-r1" x="1488.4" y="117.6" textLength="12.2" clip-path="url(#terminal-2841579823-line-4)">
</text><text class="terminal-2841579823-r2" x="36.6" y="142" textLength="305" clip-path="url(#terminal-2841579823-line-5)">Шаг&#160;1/5:&#160;Доступ&#160;к&#160;роутеру</text><text class="terminal-2841579823-r1" x="1488.4" y="142" textLength="12.2" clip-path="url(#terminal-2841579823-line-5)">
</text><text class="terminal-2841579823-r1" x="1488.4" y="166.4" textLength="12.2" clip-path="url(#terminal-2841579823-line-6)">
</text><text class="terminal-2841579823-r1" x="1488.4" y="190.8" textLength="12.2" clip-path="url(#terminal-2841579823-line-7)">
</text><text class="terminal-2841579823-r5" x="48.8" y="215.2" textLength="195.2" clip-path="url(#terminal-2841579823-line-8)">Доступ&#160;к&#160;роутеру</text><text class="terminal-2841579823-r1" x="1488.4" y="215.2" textLength="12.2" clip-path="url(#terminal-2841579823-line-8)">
</text><text class="terminal-2841579823-r1" x="1488.4" y="239.6" textLength="12.2" clip-path="url(#terminal-2841579823-line-9)">
</text><text class="terminal-2841579823-r2" x="48.8" y="264" textLength="1366.4" clip-path="url(#terminal-2841579823-line-10)">IP&#160;или&#160;hostname&#160;роутера&#160;в&#160;вашей&#160;LAN.&#160;Обычно&#160;это&#160;192.168.31.1;&#160;значение&#160;используется&#160;для&#160;SSH,&#160;bootstrap&#160;и&#160;deploy.</text><text class="terminal-2841579823-r1" x="1488.4" y="264" textLength="12.2" clip-path="url(#terminal-2841579823-line-10)">
</text><text class="terminal-2841579823-r1" x="1488.4" y="288.4" textLength="12.2" clip-path="url(#terminal-2841579823-line-11)">
</text><text class="terminal-2841579823-r6" x="48.8" y="312.8" textLength="12.2" clip-path="url(#terminal-2841579823-line-12)">▊</text><text class="terminal-2841579823-r7" x="61" y="312.8" textLength="1366.4" clip-path="url(#terminal-2841579823-line-12)">▔▔▔▔▔▔▔▔▔▔▔▔▔▔▔▔▔▔▔▔▔▔▔▔▔▔▔▔▔▔▔▔▔▔▔▔▔▔▔▔▔▔▔▔▔▔▔▔▔▔▔▔▔▔▔▔▔▔▔▔▔▔▔▔▔▔▔▔▔▔▔▔▔▔▔▔▔▔▔▔▔▔▔▔▔▔▔▔▔▔▔▔▔▔▔▔▔▔▔▔▔▔▔▔▔▔▔▔▔▔▔▔</text><text class="terminal-2841579823-r7" x="1427.4" y="312.8" textLength="12.2" clip-path="url(#terminal-2841579823-line-12)">▎</text><text class="terminal-2841579823-r1" x="1488.4" y="312.8" textLength="12.2" clip-path="url(#terminal-2841579823-line-12)">
</text><text class="terminal-2841579823-r6" x="48.8" y="337.2" textLength="12.2" clip-path="url(#terminal-2841579823-line-13)">▊</text><text class="terminal-2841579823-r2" x="85.4" y="337.2" textLength="146.4" clip-path="url(#terminal-2841579823-line-13)">192.168.31.1</text><text class="terminal-2841579823-r7" x="1427.4" y="337.2" textLength="12.2" clip-path="url(#terminal-2841579823-line-13)">▎</text><text class="terminal-2841579823-r1" x="1488.4" y="337.2" textLength="12.2" clip-path="url(#terminal-2841579823-line-13)">
</text><text class="terminal-2841579823-r6" x="48.8" y="361.6" textLength="12.2" clip-path="url(#terminal-2841579823-line-14)">▊</text><text class="terminal-2841579823-r7" x="61" y="361.6" textLength="1366.4" clip-path="url(#terminal-2841579823-line-14)">▁▁▁▁▁▁▁▁▁▁▁▁▁▁▁▁▁▁▁▁▁▁▁▁▁▁▁▁▁▁▁▁▁▁▁▁▁▁▁▁▁▁▁▁▁▁▁▁▁▁▁▁▁▁▁▁▁▁▁▁▁▁▁▁▁▁▁▁▁▁▁▁▁▁▁▁▁▁▁▁▁▁▁▁▁▁▁▁▁▁▁▁▁▁▁▁▁▁▁▁▁▁▁▁▁▁▁▁▁▁▁▁</text><text class="terminal-2841579823-r7" x="1427.4" y="361.6" textLength="12.2" clip-path="url(#terminal-2841579823-line-14)">▎</text><text class="terminal-2841579823-r1" x="1488.4" y="361.6" textLength="12.2" clip-path="url(#terminal-2841579823-line-14)">
</text><text class="terminal-2841579823-r1" x="1488.4" y="386" textLength="12.2" clip-path="url(#terminal-2841579823-line-15)">
</text><text class="terminal-2841579823-r2" x="48.8" y="410.4" textLength="1342" clip-path="url(#terminal-2841579823-line-16)">Пароль&#160;root&#160;по&#160;SSH.&#160;Нужен&#160;для&#160;проверки&#160;состояния&#160;роутера,&#160;настройки&#160;окружения&#160;и&#160;выкладки&#160;стека.&#160;Если&#160;не&#160;знаете</text><text class="terminal-2841579823-r1" x="1488.4" y="410.4" textLength="12.2" clip-path="url(#terminal-2841579823-line-16)">
</text><text class="terminal-2841579823-r2" x="48.8" y="434.8" textLength="451.4" clip-path="url(#terminal-2841579823-line-17)">пароль&#160;—&#160;сначала&#160;выполните&#160;bootstrap.</text><text class="terminal-2841579823-r1" x="1488.4" y="434.8" textLength="12.2" clip-path="url(#terminal-2841579823-line-17)">
</text><text class="terminal-2841579823-r1" x="1488.4" y="459.2" textLength="12.2" clip-path="url(#terminal-2841579823-line-18)">
</text><text class="terminal-2841579823-r6" x="48.8" y="483.6" textLength="12.2" clip-path="url(#terminal-2841579823-line-19)">▊</text><text class="terminal-2841579823-r7" x="61" y="483.6" textLength="1366.4" clip-path="url(#terminal-2841579823-line-19)">▔▔▔▔▔▔▔▔▔▔▔▔▔▔▔▔▔▔▔▔▔▔▔▔▔▔▔▔▔▔▔▔▔▔▔▔▔▔▔▔▔▔▔▔▔▔▔▔▔▔▔▔▔▔▔▔▔▔▔▔▔▔▔▔▔▔▔▔▔▔▔▔▔▔▔▔▔▔▔▔▔▔▔▔▔▔▔▔▔▔▔▔▔▔▔▔▔▔▔▔▔▔▔▔▔▔▔▔▔▔▔▔</text><text class="terminal-2841579823-r7" x="1427.4" y="483.6" textLength="12.2" clip-path="url(#terminal-2841579823-line-19)">▎</text><text class="terminal-2841579823-r1" x="1488.4" y="483.6" textLength="12.2" clip-path="url(#terminal-2841579823-line-19)">
</text><text class="terminal-2841579823-r6" x="48.8" y="508" textLength="12.2" clip-path="url(#terminal-2841579823-line-20)">▊</text><text class="terminal-2841579823-r2" x="85.4" y="508" textLength="134.2" clip-path="url(#terminal-2841579823-line-20)">•••••••••••</text><text class="terminal-2841579823-r7" x="1427.4" y="508" textLength="12.2" clip-path="url(#terminal-2841579823-line-20)">▎</text><text class="terminal-2841579823-r1" x="1488.4" y="508" textLength="12.2" clip-path="url(#terminal-2841579823-line-20)">
</text><text class="terminal-2841579823-r6" x="48.8" y="532.4" textLength="12.2" clip-path="url(#terminal-2841579823-line-21)">▊</text><text class="terminal-2841579823-r7" x="61" y="532.4" textLength="1366.4" clip-path="url(#terminal-2841579823-line-21)">▁▁▁▁▁▁▁▁▁▁▁▁▁▁▁▁▁▁▁▁▁▁▁▁▁▁▁▁▁▁▁▁▁▁▁▁▁▁▁▁▁▁▁▁▁▁▁▁▁▁▁▁▁▁▁▁▁▁▁▁▁▁▁▁▁▁▁▁▁▁▁▁▁▁▁▁▁▁▁▁▁▁▁▁▁▁▁▁▁▁▁▁▁▁▁▁▁▁▁▁▁▁▁▁▁▁▁▁▁▁▁▁</text><text class="terminal-2841579823-r7" x="1427.4" y="532.4" textLength="12.2" clip-path="url(#terminal-2841579823-line-21)">▎</text><text class="terminal-2841579823-r1" x="1488.4" y="532.4" textLength="12.2" clip-path="url(#terminal-2841579823-line-21)">
</text><text class="terminal-2841579823-r1" x="1488.4" y="556.8" textLength="12.2" clip-path="url(#terminal-2841579823-line-22)">
</text><text class="terminal-2841579823-r1" x="1488.4" y="581.2" textLength="12.2" clip-path="url(#terminal-2841579823-line-23)">
</text><text class="terminal-2841579823-r1" x="1488.4" y="605.6" textLength="12.2" clip-path="url(#terminal-2841579823-line-24)">
</text><text class="terminal-2841579823-r1" x="1488.4" y="630" textLength="12.2" clip-path="url(#terminal-2841579823-line-25)">
</text><text class="terminal-2841579823-r1" x="1488.4" y="654.4" textLength="12.2" clip-path="url(#terminal-2841579823-line-26)">
</text><text class="terminal-2841579823-r1" x="1488.4" y="678.8" textLength="12.2" clip-path="url(#terminal-2841579823-line-27)">
</text><text class="terminal-2841579823-r1" x="1488.4" y="703.2" textLength="12.2" clip-path="url(#terminal-2841579823-line-28)">
</text><text class="terminal-2841579823-r1" x="1488.4" y="727.6" textLength="12.2" clip-path="url(#terminal-2841579823-line-29)">
</text><text class="terminal-2841579823-r1" x="1488.4" y="752" textLength="12.2" clip-path="url(#terminal-2841579823-line-30)">
</text><text class="terminal-2841579823-r1" x="1488.4" y="776.4" textLength="12.2" clip-path="url(#terminal-2841579823-line-31)">
</text><text class="terminal-2841579823-r1" x="1488.4" y="800.8" textLength="12.2" clip-path="url(#terminal-2841579823-line-32)">
</text><text class="terminal-2841579823-r1" x="1488.4" y="825.2" textLength="12.2" clip-path="url(#terminal-2841579823-line-33)">
</text><text class="terminal-2841579823-r1" x="1488.4" y="849.6" textLength="12.2" clip-path="url(#terminal-2841579823-line-34)">
</text><text class="terminal-2841579823-r1" x="1488.4" y="874" textLength="12.2" clip-path="url(#terminal-2841579823-line-35)">
</text><text class="terminal-2841579823-r1" x="1488.4" y="898.4" textLength="12.2" clip-path="url(#terminal-2841579823-line-36)">
</text><text class="terminal-2841579823-r1" x="1488.4" y="922.8" textLength="12.2" clip-path="url(#terminal-2841579823-line-37)">
</text><text class="terminal-2841579823-r1" x="1488.4" y="947.2" textLength="12.2" clip-path="url(#terminal-2841579823-line-38)">
</text><text class="terminal-2841579823-r8" x="36.6" y="971.6" textLength="195.2" clip-path="url(#terminal-2841579823-line-39)">▔▔▔▔▔▔▔▔▔▔▔▔▔▔▔▔</text><text class="terminal-2841579823-r9" x="231.8" y="971.6" textLength="195.2" clip-path="url(#terminal-2841579823-line-39)">▔▔▔▔▔▔▔▔▔▔▔▔▔▔▔▔</text><text class="terminal-2841579823-r9" x="427" y="971.6" textLength="195.2" clip-path="url(#terminal-2841579823-line-39)">▔▔▔▔▔▔▔▔▔▔▔▔▔▔▔▔</text><text class="terminal-2841579823-r1" x="1488.4" y="971.6" textLength="12.2" clip-path="url(#terminal-2841579823-line-39)">
</text><text class="terminal-2841579823-r10" x="85.4" y="996" textLength="85.4" clip-path="url(#terminal-2841579823-line-40)">&#160;Назад&#160;</text><text class="terminal-2841579823-r11" x="280.6" y="996" textLength="85.4" clip-path="url(#terminal-2841579823-line-40)">&#160;Далее&#160;</text><text class="terminal-2841579823-r5" x="475.8" y="996" textLength="97.6" clip-path="url(#terminal-2841579823-line-40)">&#160;Отмена&#160;</text><text class="terminal-2841579823-r1" x="1488.4" y="996" textLength="12.2" clip-path="url(#terminal-2841579823-line-40)">
</text><text class="terminal-2841579823-r12" x="36.6" y="1020.4" textLength="195.2" clip-path="url(#terminal-2841579823-line-41)">▁▁▁▁▁▁▁▁▁▁▁▁▁▁▁▁</text><text class="terminal-2841579823-r13" x="231.8" y="1020.4" textLength="195.2" clip-path="url(#terminal-2841579823-line-41)">▁▁▁▁▁▁▁▁▁▁▁▁▁▁▁▁</text><text class="terminal-2841579823-r13" x="427" y="1020.4" textLength="195.2" clip-path="url(#terminal-2841579823-line-41)">▁▁▁▁▁▁▁▁▁▁▁▁▁▁▁▁</text><text class="terminal-2841579823-r1" x="1488.4" y="1020.4" textLength="12.2" clip-path="url(#terminal-2841579823-line-41)">
</text><text class="terminal-2841579823-r1" x="1488.4" y="1044.8" textLength="12.2" clip-path="url(#terminal-2841579823-line-42)">
</text><text class="terminal-2841579823-r14" x="1342" y="1069.2" textLength="12.2" clip-path="url(#terminal-2841579823-line-43)">▏</text><text class="terminal-2841579823-r15" x="1354.2" y="1069.2" textLength="24.4" clip-path="url(#terminal-2841579823-line-43)">^p</text><text class="terminal-2841579823-r2" x="1378.6" y="1069.2" textLength="97.6" clip-path="url(#terminal-2841579823-line-43)">&#160;palette</text>
    </g>
    </g>
</svg>
